<svg xmlns="http://www.w3.org/2000/svg"
shape-rendering="geometricPrecision"
width="4000" height="4000" viewBox="0 0 1024 1024"><rect width="100%" height="100%" fill="#FBFAFA" />
  <metadata>null</metadata>

<path d="
M 348.434 423.611
C 349.681 402.034 355.244 380.078 364.764 360.654
C 375.757 338.222 391.837 317.96 411.504 302.47
C 444.417 276.549 488.784 263.755 530.47 268.503
C 560.412 271.913 589.162 283.654 612.998 302.057
C 630.543 315.603 645.286 332.716 655.993 352.115
C 659.666 358.768 662.571 365.764 665.487 372.77
C 674.988 395.598 677.629 420.303 676.176 444.801
C 674.881 466.611 668.545 488.116 658.924 507.659
C 652.192 521.335 643.475 533.669 633.079 544.768
C 628.85 549.283 624.697 553.916 619.974 557.932
C 582.827 589.518 532.356 604.081 484.133 595.408
C 466.232 592.189 448.813 585.757 432.934 576.931
C 422.683 571.234 413.144 564.724 404.469 556.806
C 395.872 548.958 387.486 540.869 380.587 531.445
C 369.798 516.706 361.237 499.946 355.901 482.46
C 350.116 463.505 347.288 443.443 348.434 423.611 Z
M 409.004 356.607
C 409.535 370.345 408.932 384.245 408.924 397.999
C 408.908 424.501 409.013 450.997 409.052 477.501
C 409.069 489.046 408.479 500.777 409.055 512.283
C 412.066 512.72 415.442 512.24 418.497 512.235
C 424.58 512.225 430.673 512.322 436.755 512.246
C 436.318 509.858 436.652 506.944 436.657 504.503
C 436.668 499.669 436.684 494.835 436.689 490.001
C 436.704 474.845 436.606 459.684 436.636 444.533
C 437.166 444.111 438.426 444.314 439.095 444.313
C 441.396 444.31 443.698 444.292 445.999 444.297
C 454.999 444.317 463.999 444.315 472.998 444.317
C 499.831 444.323 526.665 444.285 553.498 444.292
C 559.755 444.294 566.012 444.257 572.269 444.288
C 578.755 444.32 585.471 444.539 591.369 447.636
C 602.674 453.572 605.01 474.195 594.285 481.906
C 584.57 488.891 571.782 486.923 560.504 486.914
C 551.337 486.908 542.169 486.899 533.002 486.892
C 528.209 486.889 523.315 486.596 518.535 486.939
C 517.943 484.688 518.347 481.834 518.33 479.501
C 518.284 473.325 518.878 466.914 518.206 460.77
C 509.407 460.38 500.561 460.883 491.76 460.806
C 491.704 477.92 491.939 495.046 491.778 512.16
C 492.528 512.559 493.933 512.226 494.771 512.213
C 497.346 512.172 499.924 512.198 502.5 512.186
C 511.668 512.144 520.837 512.081 530.005 512.092
C 542.365 512.107 554.725 512.112 567.086 512.111
C 580.084 512.11 592.96 512.047 605.215 507.02
C 628.855 497.325 637.546 465.432 623.463 444.34
C 620.222 439.486 615.385 435.648 610.189 433.051
C 608.899 432.407 607.546 431.775 606.169 431.343
C 605.458 431.121 604.426 431.102 603.815 430.681
C 605.035 429.214 607.652 428.205 609.193 426.943
C 613.336 423.551 617.228 418.871 619.155 413.813
C 625.748 396.509 621.485 376.56 606.388 365.159
C 602.977 362.582 599.184 360.577 595.162 359.145
C 581.093 354.133 565.677 355.587 551.006 355.572
C 538.339 355.56 525.671 355.542 513.004 355.542
C 505.984 355.542 498.806 355.146 491.81 355.73
C 491.59 371.83 491.585 387.991 491.827 404.09
C 500.647 404.241 509.543 404.249 518.366 404.118
C 518.343 396.419 518.413 388.711 518.476 381.021
C 523.194 380.352 528.235 380.793 532.997 380.793
C 541.83 380.793 550.664 380.794 559.497 380.792
C 567.336 380.79 576.295 379.863 583.61 383.223
C 587.532 385.024 590.865 387.653 592.869 391.556
C 597.608 400.786 594.437 412.822 585.523 418.021
C 579.113 421.758 572.14 421.306 565.008 421.207
C 557.511 421.102 550.005 421.177 542.507 421.177
C 518.507 421.177 494.507 421.215 470.507 421.179
C 462.84 421.168 455.172 421.224 447.505 421.233
C 444.019 421.237 440.174 421.705 436.728 421.271
C 437.024 415.718 436.715 410.068 436.707 404.505
C 436.691 393.837 436.695 383.169 436.692 372.501
C 436.691 366.925 436.293 361.169 436.787 355.617
C 435.062 354.668 431.163 355.433 429.157 355.419
C 422.588 355.373 416.018 355.408 409.455 355.584
C 408.989 356.305 409.101 355.949 409.004 356.607 Z"
opacity="1" fill="rgb(219,194,151)" fill-rule="evenodd" />
<path d="
M 409.004 356.607
C 409.101 355.949 408.989 356.305 409.455 355.584
C 416.018 355.408 422.588 355.373 429.157 355.419
C 431.163 355.433 435.062 354.668 436.787 355.617
C 436.293 361.169 436.691 366.925 436.692 372.501
C 436.695 383.169 436.691 393.837 436.707 404.505
C 436.715 410.068 437.024 415.718 436.728 421.271
C 440.174 421.705 444.019 421.237 447.505 421.233
C 455.172 421.224 462.84 421.168 470.507 421.179
C 494.507 421.215 518.507 421.177 542.507 421.177
C 550.005 421.177 557.511 421.102 565.008 421.207
C 572.14 421.306 579.113 421.758 585.523 418.021
C 594.437 412.822 597.608 400.786 592.869 391.556
C 590.865 387.653 587.532 385.024 583.61 383.223
C 576.295 379.863 567.336 380.79 559.497 380.792
C 550.664 380.794 541.83 380.793 532.997 380.793
C 528.235 380.793 523.194 380.352 518.476 381.021
C 518.413 388.711 518.343 396.419 518.366 404.118
C 509.543 404.249 500.647 404.241 491.827 404.09
C 491.585 387.991 491.59 371.83 491.81 355.73
C 498.806 355.146 505.984 355.542 513.004 355.542
C 525.671 355.542 538.339 355.56 551.006 355.572
C 565.677 355.587 581.093 354.133 595.162 359.145
C 599.184 360.577 602.977 362.582 606.388 365.159
C 621.485 376.56 625.748 396.509 619.155 413.813
C 617.228 418.871 613.336 423.551 609.193 426.943
C 607.652 428.205 605.035 429.214 603.815 430.681
C 604.426 431.102 605.458 431.121 606.169 431.343
C 607.546 431.775 608.899 432.407 610.189 433.051
C 615.385 435.648 620.222 439.486 623.463 444.34
C 637.546 465.432 628.855 497.325 605.215 507.02
C 592.96 512.047 580.084 512.11 567.086 512.111
C 554.725 512.112 542.365 512.107 530.005 512.092
C 520.837 512.081 511.668 512.144 502.5 512.186
C 499.924 512.198 497.346 512.172 494.771 512.213
C 493.933 512.226 492.528 512.559 491.778 512.16
C 491.939 495.046 491.704 477.92 491.76 460.806
C 500.561 460.883 509.407 460.38 518.206 460.77
C 518.878 466.914 518.284 473.325 518.33 479.501
C 518.347 481.834 517.943 484.688 518.535 486.939
C 523.315 486.596 528.209 486.889 533.002 486.892
C 542.169 486.899 551.337 486.908 560.504 486.914
C 571.782 486.923 584.57 488.891 594.285 481.906
C 605.01 474.195 602.674 453.572 591.369 447.636
C 585.471 444.539 578.755 444.32 572.269 444.288
C 566.012 444.257 559.755 444.294 553.498 444.292
C 526.665 444.285 499.831 444.323 472.998 444.317
C 463.999 444.315 454.999 444.317 445.999 444.297
C 443.698 444.292 441.396 444.31 439.095 444.313
C 438.426 444.314 437.166 444.111 436.636 444.533
C 436.606 459.684 436.704 474.845 436.689 490.001
C 436.684 494.835 436.668 499.669 436.657 504.503
C 436.652 506.944 436.318 509.858 436.755 512.246
C 430.673 512.322 424.58 512.225 418.497 512.235
C 415.442 512.24 412.066 512.72 409.055 512.283
C 408.479 500.777 409.069 489.046 409.052 477.501
C 409.013 450.997 408.908 424.501 408.924 397.999
C 408.932 384.245 409.535 370.345 409.004 356.607 Z"
opacity="1" fill="rgb(84,31,31)" fill-rule="evenodd" />

</svg>